<mxfile host="app.diagrams.net" modified="2024-02-26T00:53:56.960Z" agent="Mozilla/5.0 (Macintosh; Intel Mac OS X 10_15_7) AppleWebKit/537.36 (KHTML, like Gecko) Chrome/120.0.0.0 Safari/537.36" version="23.1.6" etag="bqXK269daLFXzFX9YxoZ" type="github">
  <diagram name="Page-1" id="jyQdKfFURwvnawgG8Wzg">
    <mxGraphModel>
      <root>
        <mxCell id="0" />
        <mxCell id="1" parent="0" />
      </root>
    </mxGraphModel>
  </diagram>
</mxfile>
